<?xml version="1.0" standalone="no"?>
<svg
        width="600"
        height="600"
        viewBox="0 0 600 600"
        xmlns="http://www.w3.org/2000/svg"
>
    <g transform="translate(300,300)">
        <path d="M149.8,-218.2C182.5,-182.5,189.2,-123.1,195.7,-71.1C202.3,-19.2,208.6,25.3,201.8,71.5C195,117.8,175.1,165.7,139.3,193.9C103.5,222.1,51.7,230.5,7.2,220.7C-37.4,210.8,-74.8,182.7,-117.3,156.7C-159.8,130.6,-207.3,106.7,-230.6,67.3C-253.9,27.9,-253,-27,-236.3,-76.3C-219.5,-125.5,-187.1,-169.1,-145.1,-201.8C-103.1,-234.5,-51.5,-256.3,3.5,-261.1C58.6,-266,117.2,-253.9,149.8,-218.2Z"
              fill="#c9e5ff"/>
    </g>
</svg>
