<?xml version="1.0" standalone="no"?>
<svg
  width="600"
  height="600"
  viewBox="0 0 600 600"
  xmlns="http://www.w3.org/2000/svg"
>
  <g transform="translate(300,300)">
    <path d="M154.7,-209.7C200.8,-179.4,238.8,-134.6,245.9,-86.2C253,-37.7,229.2,14.5,211.2,68.2C193.2,121.9,180.9,177,146.7,204.4C112.5,231.8,56.2,231.4,0.1,231.3C-56,231.1,-112.1,231.3,-149.8,205C-187.5,178.8,-206.9,126.2,-223.6,73.1C-240.3,20,-254.2,-33.6,-241.3,-80C-228.4,-126.3,-188.5,-165.5,-143.8,-196.3C-99.1,-227.1,-49.6,-249.6,2.4,-252.8C54.3,-256,108.5,-240.1,154.7,-209.7Z" fill="#ffffff" />
  </g>
</svg>
  