<?xml version="1.0" standalone="no"?>
<svg
  width="600"
  height="600"
  viewBox="0 0 600 600"
  xmlns="http://www.w3.org/2000/svg"
>
  <g transform="translate(300,300)">
    <path d="M100.2,-156.4C126.4,-118.9,141.6,-85,167.5,-45.1C193.4,-5.2,229.8,40.7,227.2,81.5C224.6,122.4,182.8,158.3,138.4,172.7C94,187.1,47,180.1,-0.5,180.7C-48,181.4,-96,189.8,-139,174.9C-181.9,160.1,-219.8,121.9,-237.2,75.4C-254.6,28.9,-251.4,-25.9,-236.2,-78C-220.9,-130.1,-193.6,-179.5,-152.3,-212.1C-110.9,-244.6,-55.4,-260.3,-9.2,-247.6C37,-235,74.1,-193.9,100.2,-156.4Z" fill="#eb144c" />
  </g>
</svg>
  